<?xml version="1.0" encoding="utf-8" standalone="no"?>
<!DOCTYPE svg PUBLIC "-//W3C//DTD SVG 1.1//EN"
  "http://www.w3.org/Graphics/SVG/1.1/DTD/svg11.dtd">
<svg xmlns:xlink="http://www.w3.org/1999/xlink" width="576pt" height="432pt" viewBox="0 0 576 432" xmlns="http://www.w3.org/2000/svg" version="1.1">
 <metadata>
  <rdf:RDF xmlns:dc="http://purl.org/dc/elements/1.1/" xmlns:cc="http://creativecommons.org/ns#" xmlns:rdf="http://www.w3.org/1999/02/22-rdf-syntax-ns#">
   <cc:Work>
    <dc:type rdf:resource="http://purl.org/dc/dcmitype/StillImage"/>
    <dc:date>2025-02-03T22:56:46.377919</dc:date>
    <dc:format>image/svg+xml</dc:format>
    <dc:creator>
     <cc:Agent>
      <dc:title>Matplotlib v3.10.0, https://matplotlib.org/</dc:title>
     </cc:Agent>
    </dc:creator>
   </cc:Work>
  </rdf:RDF>
 </metadata>
 <defs>
  <style type="text/css">*{stroke-linejoin: round; stroke-linecap: butt}</style>
 </defs>
 <g id="figure_1">
  <g id="patch_1">
   <path d="M 0 432 
L 576 432 
L 576 0 
L 0 0 
z
" style="fill: #ffffff"/>
  </g>
  <g id="axes_1">
   <g id="patch_2">
    <path d="M 72 384.48 
L 518.4 384.48 
L 518.4 51.84 
L 72 51.84 
z
" style="fill: #ffffff"/>
   </g>
   <g id="matplotlib.axis_1">
    <g id="xtick_1">
     <g id="line2d_1">
      <defs>
       <path id="mc3039e69d9" d="M 0 0 
L 0 3.5 
" style="stroke: #000000; stroke-width: 0.8"/>
      </defs>
      <g>
       <use xlink:href="#mc3039e69d9" x="91.884278" y="384.48" style="stroke: #000000; stroke-width: 0.8"/>
      </g>
     </g>
     <g id="text_1">
      <!-- 0 -->
      <g transform="translate(88.703028 399.078438) scale(0.1 -0.1)">
       <defs>
        <path id="DejaVuSans-30" d="M 2034 4250 
Q 1547 4250 1301 3770 
Q 1056 3291 1056 2328 
Q 1056 1369 1301 889 
Q 1547 409 2034 409 
Q 2525 409 2770 889 
Q 3016 1369 3016 2328 
Q 3016 3291 2770 3770 
Q 2525 4250 2034 4250 
z
M 2034 4750 
Q 2819 4750 3233 4129 
Q 3647 3509 3647 2328 
Q 3647 1150 3233 529 
Q 2819 -91 2034 -91 
Q 1250 -91 836 529 
Q 422 1150 422 2328 
Q 422 3509 836 4129 
Q 1250 4750 2034 4750 
z
" transform="scale(0.015625)"/>
       </defs>
       <use xlink:href="#DejaVuSans-30"/>
      </g>
     </g>
    </g>
    <g id="xtick_2">
     <g id="line2d_2">
      <g>
       <use xlink:href="#mc3039e69d9" x="173.210567" y="384.48" style="stroke: #000000; stroke-width: 0.8"/>
      </g>
     </g>
     <g id="text_2">
      <!-- 200 -->
      <g transform="translate(163.666817 399.078438) scale(0.1 -0.1)">
       <defs>
        <path id="DejaVuSans-32" d="M 1228 531 
L 3431 531 
L 3431 0 
L 469 0 
L 469 531 
Q 828 903 1448 1529 
Q 2069 2156 2228 2338 
Q 2531 2678 2651 2914 
Q 2772 3150 2772 3378 
Q 2772 3750 2511 3984 
Q 2250 4219 1831 4219 
Q 1534 4219 1204 4116 
Q 875 4013 500 3803 
L 500 4441 
Q 881 4594 1212 4672 
Q 1544 4750 1819 4750 
Q 2544 4750 2975 4387 
Q 3406 4025 3406 3419 
Q 3406 3131 3298 2873 
Q 3191 2616 2906 2266 
Q 2828 2175 2409 1742 
Q 1991 1309 1228 531 
z
" transform="scale(0.015625)"/>
       </defs>
       <use xlink:href="#DejaVuSans-32"/>
       <use xlink:href="#DejaVuSans-30" transform="translate(63.623047 0)"/>
       <use xlink:href="#DejaVuSans-30" transform="translate(127.246094 0)"/>
      </g>
     </g>
    </g>
    <g id="xtick_3">
     <g id="line2d_3">
      <g>
       <use xlink:href="#mc3039e69d9" x="254.536856" y="384.48" style="stroke: #000000; stroke-width: 0.8"/>
      </g>
     </g>
     <g id="text_3">
      <!-- 400 -->
      <g transform="translate(244.993106 399.078438) scale(0.1 -0.1)">
       <defs>
        <path id="DejaVuSans-34" d="M 2419 4116 
L 825 1625 
L 2419 1625 
L 2419 4116 
z
M 2253 4666 
L 3047 4666 
L 3047 1625 
L 3713 1625 
L 3713 1100 
L 3047 1100 
L 3047 0 
L 2419 0 
L 2419 1100 
L 313 1100 
L 313 1709 
L 2253 4666 
z
" transform="scale(0.015625)"/>
       </defs>
       <use xlink:href="#DejaVuSans-34"/>
       <use xlink:href="#DejaVuSans-30" transform="translate(63.623047 0)"/>
       <use xlink:href="#DejaVuSans-30" transform="translate(127.246094 0)"/>
      </g>
     </g>
    </g>
    <g id="xtick_4">
     <g id="line2d_4">
      <g>
       <use xlink:href="#mc3039e69d9" x="335.863144" y="384.48" style="stroke: #000000; stroke-width: 0.8"/>
      </g>
     </g>
     <g id="text_4">
      <!-- 600 -->
      <g transform="translate(326.319394 399.078438) scale(0.1 -0.1)">
       <defs>
        <path id="DejaVuSans-36" d="M 2113 2584 
Q 1688 2584 1439 2293 
Q 1191 2003 1191 1497 
Q 1191 994 1439 701 
Q 1688 409 2113 409 
Q 2538 409 2786 701 
Q 3034 994 3034 1497 
Q 3034 2003 2786 2293 
Q 2538 2584 2113 2584 
z
M 3366 4563 
L 3366 3988 
Q 3128 4100 2886 4159 
Q 2644 4219 2406 4219 
Q 1781 4219 1451 3797 
Q 1122 3375 1075 2522 
Q 1259 2794 1537 2939 
Q 1816 3084 2150 3084 
Q 2853 3084 3261 2657 
Q 3669 2231 3669 1497 
Q 3669 778 3244 343 
Q 2819 -91 2113 -91 
Q 1303 -91 875 529 
Q 447 1150 447 2328 
Q 447 3434 972 4092 
Q 1497 4750 2381 4750 
Q 2619 4750 2861 4703 
Q 3103 4656 3366 4563 
z
" transform="scale(0.015625)"/>
       </defs>
       <use xlink:href="#DejaVuSans-36"/>
       <use xlink:href="#DejaVuSans-30" transform="translate(63.623047 0)"/>
       <use xlink:href="#DejaVuSans-30" transform="translate(127.246094 0)"/>
      </g>
     </g>
    </g>
    <g id="xtick_5">
     <g id="line2d_5">
      <g>
       <use xlink:href="#mc3039e69d9" x="417.189433" y="384.48" style="stroke: #000000; stroke-width: 0.8"/>
      </g>
     </g>
     <g id="text_5">
      <!-- 800 -->
      <g transform="translate(407.645683 399.078438) scale(0.1 -0.1)">
       <defs>
        <path id="DejaVuSans-38" d="M 2034 2216 
Q 1584 2216 1326 1975 
Q 1069 1734 1069 1313 
Q 1069 891 1326 650 
Q 1584 409 2034 409 
Q 2484 409 2743 651 
Q 3003 894 3003 1313 
Q 3003 1734 2745 1975 
Q 2488 2216 2034 2216 
z
M 1403 2484 
Q 997 2584 770 2862 
Q 544 3141 544 3541 
Q 544 4100 942 4425 
Q 1341 4750 2034 4750 
Q 2731 4750 3128 4425 
Q 3525 4100 3525 3541 
Q 3525 3141 3298 2862 
Q 3072 2584 2669 2484 
Q 3125 2378 3379 2068 
Q 3634 1759 3634 1313 
Q 3634 634 3220 271 
Q 2806 -91 2034 -91 
Q 1263 -91 848 271 
Q 434 634 434 1313 
Q 434 1759 690 2068 
Q 947 2378 1403 2484 
z
M 1172 3481 
Q 1172 3119 1398 2916 
Q 1625 2713 2034 2713 
Q 2441 2713 2670 2916 
Q 2900 3119 2900 3481 
Q 2900 3844 2670 4047 
Q 2441 4250 2034 4250 
Q 1625 4250 1398 4047 
Q 1172 3844 1172 3481 
z
" transform="scale(0.015625)"/>
       </defs>
       <use xlink:href="#DejaVuSans-38"/>
       <use xlink:href="#DejaVuSans-30" transform="translate(63.623047 0)"/>
       <use xlink:href="#DejaVuSans-30" transform="translate(127.246094 0)"/>
      </g>
     </g>
    </g>
    <g id="xtick_6">
     <g id="line2d_6">
      <g>
       <use xlink:href="#mc3039e69d9" x="498.515722" y="384.48" style="stroke: #000000; stroke-width: 0.8"/>
      </g>
     </g>
     <g id="text_6">
      <!-- 1000 -->
      <g transform="translate(485.790722 399.078438) scale(0.1 -0.1)">
       <defs>
        <path id="DejaVuSans-31" d="M 794 531 
L 1825 531 
L 1825 4091 
L 703 3866 
L 703 4441 
L 1819 4666 
L 2450 4666 
L 2450 531 
L 3481 531 
L 3481 0 
L 794 0 
L 794 531 
z
" transform="scale(0.015625)"/>
       </defs>
       <use xlink:href="#DejaVuSans-31"/>
       <use xlink:href="#DejaVuSans-30" transform="translate(63.623047 0)"/>
       <use xlink:href="#DejaVuSans-30" transform="translate(127.246094 0)"/>
       <use xlink:href="#DejaVuSans-30" transform="translate(190.869141 0)"/>
      </g>
     </g>
    </g>
    <g id="text_7">
     <!-- Número de experimentos -->
     <g transform="translate(167.857812 421.155) scale(0.2 -0.2)">
      <defs>
       <path id="DejaVuSans-4e" d="M 628 4666 
L 1478 4666 
L 3547 763 
L 3547 4666 
L 4159 4666 
L 4159 0 
L 3309 0 
L 1241 3903 
L 1241 0 
L 628 0 
L 628 4666 
z
" transform="scale(0.015625)"/>
       <path id="DejaVuSans-fa" d="M 544 1381 
L 544 3500 
L 1119 3500 
L 1119 1403 
Q 1119 906 1312 657 
Q 1506 409 1894 409 
Q 2359 409 2629 706 
Q 2900 1003 2900 1516 
L 2900 3500 
L 3475 3500 
L 3475 0 
L 2900 0 
L 2900 538 
Q 2691 219 2414 64 
Q 2138 -91 1772 -91 
Q 1169 -91 856 284 
Q 544 659 544 1381 
z
M 1991 3584 
L 1991 3584 
z
M 2418 5119 
L 3040 5119 
L 2022 3944 
L 1543 3944 
L 2418 5119 
z
" transform="scale(0.015625)"/>
       <path id="DejaVuSans-6d" d="M 3328 2828 
Q 3544 3216 3844 3400 
Q 4144 3584 4550 3584 
Q 5097 3584 5394 3201 
Q 5691 2819 5691 2113 
L 5691 0 
L 5113 0 
L 5113 2094 
Q 5113 2597 4934 2840 
Q 4756 3084 4391 3084 
Q 3944 3084 3684 2787 
Q 3425 2491 3425 1978 
L 3425 0 
L 2847 0 
L 2847 2094 
Q 2847 2600 2669 2842 
Q 2491 3084 2119 3084 
Q 1678 3084 1418 2786 
Q 1159 2488 1159 1978 
L 1159 0 
L 581 0 
L 581 3500 
L 1159 3500 
L 1159 2956 
Q 1356 3278 1631 3431 
Q 1906 3584 2284 3584 
Q 2666 3584 2933 3390 
Q 3200 3197 3328 2828 
z
" transform="scale(0.015625)"/>
       <path id="DejaVuSans-65" d="M 3597 1894 
L 3597 1613 
L 953 1613 
Q 991 1019 1311 708 
Q 1631 397 2203 397 
Q 2534 397 2845 478 
Q 3156 559 3463 722 
L 3463 178 
Q 3153 47 2828 -22 
Q 2503 -91 2169 -91 
Q 1331 -91 842 396 
Q 353 884 353 1716 
Q 353 2575 817 3079 
Q 1281 3584 2069 3584 
Q 2775 3584 3186 3129 
Q 3597 2675 3597 1894 
z
M 3022 2063 
Q 3016 2534 2758 2815 
Q 2500 3097 2075 3097 
Q 1594 3097 1305 2825 
Q 1016 2553 972 2059 
L 3022 2063 
z
" transform="scale(0.015625)"/>
       <path id="DejaVuSans-72" d="M 2631 2963 
Q 2534 3019 2420 3045 
Q 2306 3072 2169 3072 
Q 1681 3072 1420 2755 
Q 1159 2438 1159 1844 
L 1159 0 
L 581 0 
L 581 3500 
L 1159 3500 
L 1159 2956 
Q 1341 3275 1631 3429 
Q 1922 3584 2338 3584 
Q 2397 3584 2469 3576 
Q 2541 3569 2628 3553 
L 2631 2963 
z
" transform="scale(0.015625)"/>
       <path id="DejaVuSans-6f" d="M 1959 3097 
Q 1497 3097 1228 2736 
Q 959 2375 959 1747 
Q 959 1119 1226 758 
Q 1494 397 1959 397 
Q 2419 397 2687 759 
Q 2956 1122 2956 1747 
Q 2956 2369 2687 2733 
Q 2419 3097 1959 3097 
z
M 1959 3584 
Q 2709 3584 3137 3096 
Q 3566 2609 3566 1747 
Q 3566 888 3137 398 
Q 2709 -91 1959 -91 
Q 1206 -91 779 398 
Q 353 888 353 1747 
Q 353 2609 779 3096 
Q 1206 3584 1959 3584 
z
" transform="scale(0.015625)"/>
       <path id="DejaVuSans-20" transform="scale(0.015625)"/>
       <path id="DejaVuSans-64" d="M 2906 2969 
L 2906 4863 
L 3481 4863 
L 3481 0 
L 2906 0 
L 2906 525 
Q 2725 213 2448 61 
Q 2172 -91 1784 -91 
Q 1150 -91 751 415 
Q 353 922 353 1747 
Q 353 2572 751 3078 
Q 1150 3584 1784 3584 
Q 2172 3584 2448 3432 
Q 2725 3281 2906 2969 
z
M 947 1747 
Q 947 1113 1208 752 
Q 1469 391 1925 391 
Q 2381 391 2643 752 
Q 2906 1113 2906 1747 
Q 2906 2381 2643 2742 
Q 2381 3103 1925 3103 
Q 1469 3103 1208 2742 
Q 947 2381 947 1747 
z
" transform="scale(0.015625)"/>
       <path id="DejaVuSans-78" d="M 3513 3500 
L 2247 1797 
L 3578 0 
L 2900 0 
L 1881 1375 
L 863 0 
L 184 0 
L 1544 1831 
L 300 3500 
L 978 3500 
L 1906 2253 
L 2834 3500 
L 3513 3500 
z
" transform="scale(0.015625)"/>
       <path id="DejaVuSans-70" d="M 1159 525 
L 1159 -1331 
L 581 -1331 
L 581 3500 
L 1159 3500 
L 1159 2969 
Q 1341 3281 1617 3432 
Q 1894 3584 2278 3584 
Q 2916 3584 3314 3078 
Q 3713 2572 3713 1747 
Q 3713 922 3314 415 
Q 2916 -91 2278 -91 
Q 1894 -91 1617 61 
Q 1341 213 1159 525 
z
M 3116 1747 
Q 3116 2381 2855 2742 
Q 2594 3103 2138 3103 
Q 1681 3103 1420 2742 
Q 1159 2381 1159 1747 
Q 1159 1113 1420 752 
Q 1681 391 2138 391 
Q 2594 391 2855 752 
Q 3116 1113 3116 1747 
z
" transform="scale(0.015625)"/>
       <path id="DejaVuSans-69" d="M 603 3500 
L 1178 3500 
L 1178 0 
L 603 0 
L 603 3500 
z
M 603 4863 
L 1178 4863 
L 1178 4134 
L 603 4134 
L 603 4863 
z
" transform="scale(0.015625)"/>
       <path id="DejaVuSans-6e" d="M 3513 2113 
L 3513 0 
L 2938 0 
L 2938 2094 
Q 2938 2591 2744 2837 
Q 2550 3084 2163 3084 
Q 1697 3084 1428 2787 
Q 1159 2491 1159 1978 
L 1159 0 
L 581 0 
L 581 3500 
L 1159 3500 
L 1159 2956 
Q 1366 3272 1645 3428 
Q 1925 3584 2291 3584 
Q 2894 3584 3203 3211 
Q 3513 2838 3513 2113 
z
" transform="scale(0.015625)"/>
       <path id="DejaVuSans-74" d="M 1172 4494 
L 1172 3500 
L 2356 3500 
L 2356 3053 
L 1172 3053 
L 1172 1153 
Q 1172 725 1289 603 
Q 1406 481 1766 481 
L 2356 481 
L 2356 0 
L 1766 0 
Q 1100 0 847 248 
Q 594 497 594 1153 
L 594 3053 
L 172 3053 
L 172 3500 
L 594 3500 
L 594 4494 
L 1172 4494 
z
" transform="scale(0.015625)"/>
       <path id="DejaVuSans-73" d="M 2834 3397 
L 2834 2853 
Q 2591 2978 2328 3040 
Q 2066 3103 1784 3103 
Q 1356 3103 1142 2972 
Q 928 2841 928 2578 
Q 928 2378 1081 2264 
Q 1234 2150 1697 2047 
L 1894 2003 
Q 2506 1872 2764 1633 
Q 3022 1394 3022 966 
Q 3022 478 2636 193 
Q 2250 -91 1575 -91 
Q 1294 -91 989 -36 
Q 684 19 347 128 
L 347 722 
Q 666 556 975 473 
Q 1284 391 1588 391 
Q 1994 391 2212 530 
Q 2431 669 2431 922 
Q 2431 1156 2273 1281 
Q 2116 1406 1581 1522 
L 1381 1569 
Q 847 1681 609 1914 
Q 372 2147 372 2553 
Q 372 3047 722 3315 
Q 1072 3584 1716 3584 
Q 2034 3584 2315 3537 
Q 2597 3491 2834 3397 
z
" transform="scale(0.015625)"/>
      </defs>
      <use xlink:href="#DejaVuSans-4e"/>
      <use xlink:href="#DejaVuSans-fa" transform="translate(74.804688 0)"/>
      <use xlink:href="#DejaVuSans-6d" transform="translate(138.183594 0)"/>
      <use xlink:href="#DejaVuSans-65" transform="translate(235.595703 0)"/>
      <use xlink:href="#DejaVuSans-72" transform="translate(297.119141 0)"/>
      <use xlink:href="#DejaVuSans-6f" transform="translate(335.982422 0)"/>
      <use xlink:href="#DejaVuSans-20" transform="translate(397.164062 0)"/>
      <use xlink:href="#DejaVuSans-64" transform="translate(428.951172 0)"/>
      <use xlink:href="#DejaVuSans-65" transform="translate(492.427734 0)"/>
      <use xlink:href="#DejaVuSans-20" transform="translate(553.951172 0)"/>
      <use xlink:href="#DejaVuSans-65" transform="translate(585.738281 0)"/>
      <use xlink:href="#DejaVuSans-78" transform="translate(645.511719 0)"/>
      <use xlink:href="#DejaVuSans-70" transform="translate(704.691406 0)"/>
      <use xlink:href="#DejaVuSans-65" transform="translate(768.167969 0)"/>
      <use xlink:href="#DejaVuSans-72" transform="translate(829.691406 0)"/>
      <use xlink:href="#DejaVuSans-69" transform="translate(870.804688 0)"/>
      <use xlink:href="#DejaVuSans-6d" transform="translate(898.587891 0)"/>
      <use xlink:href="#DejaVuSans-65" transform="translate(996 0)"/>
      <use xlink:href="#DejaVuSans-6e" transform="translate(1057.523438 0)"/>
      <use xlink:href="#DejaVuSans-74" transform="translate(1120.902344 0)"/>
      <use xlink:href="#DejaVuSans-6f" transform="translate(1160.111328 0)"/>
      <use xlink:href="#DejaVuSans-73" transform="translate(1221.292969 0)"/>
     </g>
    </g>
   </g>
   <g id="matplotlib.axis_2">
    <g id="ytick_1">
     <g id="line2d_7">
      <defs>
       <path id="m2827857156" d="M 0 0 
L -3.5 0 
" style="stroke: #000000; stroke-width: 0.8"/>
      </defs>
      <g>
       <use xlink:href="#m2827857156" x="72" y="369.36" style="stroke: #000000; stroke-width: 0.8"/>
      </g>
     </g>
     <g id="text_8">
      <!-- 2.0 -->
      <g transform="translate(49.096875 373.159219) scale(0.1 -0.1)">
       <defs>
        <path id="DejaVuSans-2e" d="M 684 794 
L 1344 794 
L 1344 0 
L 684 0 
L 684 794 
z
" transform="scale(0.015625)"/>
       </defs>
       <use xlink:href="#DejaVuSans-32"/>
       <use xlink:href="#DejaVuSans-2e" transform="translate(63.623047 0)"/>
       <use xlink:href="#DejaVuSans-30" transform="translate(95.410156 0)"/>
      </g>
     </g>
    </g>
    <g id="ytick_2">
     <g id="line2d_8">
      <g>
       <use xlink:href="#m2827857156" x="72" y="308.88" style="stroke: #000000; stroke-width: 0.8"/>
      </g>
     </g>
     <g id="text_9">
      <!-- 2.5 -->
      <g transform="translate(49.096875 312.679219) scale(0.1 -0.1)">
       <defs>
        <path id="DejaVuSans-35" d="M 691 4666 
L 3169 4666 
L 3169 4134 
L 1269 4134 
L 1269 2991 
Q 1406 3038 1543 3061 
Q 1681 3084 1819 3084 
Q 2600 3084 3056 2656 
Q 3513 2228 3513 1497 
Q 3513 744 3044 326 
Q 2575 -91 1722 -91 
Q 1428 -91 1123 -41 
Q 819 9 494 109 
L 494 744 
Q 775 591 1075 516 
Q 1375 441 1709 441 
Q 2250 441 2565 725 
Q 2881 1009 2881 1497 
Q 2881 1984 2565 2268 
Q 2250 2553 1709 2553 
Q 1456 2553 1204 2497 
Q 953 2441 691 2322 
L 691 4666 
z
" transform="scale(0.015625)"/>
       </defs>
       <use xlink:href="#DejaVuSans-32"/>
       <use xlink:href="#DejaVuSans-2e" transform="translate(63.623047 0)"/>
       <use xlink:href="#DejaVuSans-35" transform="translate(95.410156 0)"/>
      </g>
     </g>
    </g>
    <g id="ytick_3">
     <g id="line2d_9">
      <g>
       <use xlink:href="#m2827857156" x="72" y="248.4" style="stroke: #000000; stroke-width: 0.8"/>
      </g>
     </g>
     <g id="text_10">
      <!-- 3.0 -->
      <g transform="translate(49.096875 252.199219) scale(0.1 -0.1)">
       <defs>
        <path id="DejaVuSans-33" d="M 2597 2516 
Q 3050 2419 3304 2112 
Q 3559 1806 3559 1356 
Q 3559 666 3084 287 
Q 2609 -91 1734 -91 
Q 1441 -91 1130 -33 
Q 819 25 488 141 
L 488 750 
Q 750 597 1062 519 
Q 1375 441 1716 441 
Q 2309 441 2620 675 
Q 2931 909 2931 1356 
Q 2931 1769 2642 2001 
Q 2353 2234 1838 2234 
L 1294 2234 
L 1294 2753 
L 1863 2753 
Q 2328 2753 2575 2939 
Q 2822 3125 2822 3475 
Q 2822 3834 2567 4026 
Q 2313 4219 1838 4219 
Q 1578 4219 1281 4162 
Q 984 4106 628 3988 
L 628 4550 
Q 988 4650 1302 4700 
Q 1616 4750 1894 4750 
Q 2613 4750 3031 4423 
Q 3450 4097 3450 3541 
Q 3450 3153 3228 2886 
Q 3006 2619 2597 2516 
z
" transform="scale(0.015625)"/>
       </defs>
       <use xlink:href="#DejaVuSans-33"/>
       <use xlink:href="#DejaVuSans-2e" transform="translate(63.623047 0)"/>
       <use xlink:href="#DejaVuSans-30" transform="translate(95.410156 0)"/>
      </g>
     </g>
    </g>
    <g id="ytick_4">
     <g id="line2d_10">
      <g>
       <use xlink:href="#m2827857156" x="72" y="187.92" style="stroke: #000000; stroke-width: 0.8"/>
      </g>
     </g>
     <g id="text_11">
      <!-- 3.5 -->
      <g transform="translate(49.096875 191.719219) scale(0.1 -0.1)">
       <use xlink:href="#DejaVuSans-33"/>
       <use xlink:href="#DejaVuSans-2e" transform="translate(63.623047 0)"/>
       <use xlink:href="#DejaVuSans-35" transform="translate(95.410156 0)"/>
      </g>
     </g>
    </g>
    <g id="ytick_5">
     <g id="line2d_11">
      <g>
       <use xlink:href="#m2827857156" x="72" y="127.44" style="stroke: #000000; stroke-width: 0.8"/>
      </g>
     </g>
     <g id="text_12">
      <!-- 4.0 -->
      <g transform="translate(49.096875 131.239219) scale(0.1 -0.1)">
       <use xlink:href="#DejaVuSans-34"/>
       <use xlink:href="#DejaVuSans-2e" transform="translate(63.623047 0)"/>
       <use xlink:href="#DejaVuSans-30" transform="translate(95.410156 0)"/>
      </g>
     </g>
    </g>
    <g id="ytick_6">
     <g id="line2d_12">
      <g>
       <use xlink:href="#m2827857156" x="72" y="66.96" style="stroke: #000000; stroke-width: 0.8"/>
      </g>
     </g>
     <g id="text_13">
      <!-- 4.5 -->
      <g transform="translate(49.096875 70.759219) scale(0.1 -0.1)">
       <use xlink:href="#DejaVuSans-34"/>
       <use xlink:href="#DejaVuSans-2e" transform="translate(63.623047 0)"/>
       <use xlink:href="#DejaVuSans-35" transform="translate(95.410156 0)"/>
      </g>
     </g>
    </g>
    <g id="text_14">
     <!-- Valor esperado -->
     <g transform="translate(40.9375 293.11) rotate(-90) scale(0.2 -0.2)">
      <defs>
       <path id="DejaVuSans-56" d="M 1831 0 
L 50 4666 
L 709 4666 
L 2188 738 
L 3669 4666 
L 4325 4666 
L 2547 0 
L 1831 0 
z
" transform="scale(0.015625)"/>
       <path id="DejaVuSans-61" d="M 2194 1759 
Q 1497 1759 1228 1600 
Q 959 1441 959 1056 
Q 959 750 1161 570 
Q 1363 391 1709 391 
Q 2188 391 2477 730 
Q 2766 1069 2766 1631 
L 2766 1759 
L 2194 1759 
z
M 3341 1997 
L 3341 0 
L 2766 0 
L 2766 531 
Q 2569 213 2275 61 
Q 1981 -91 1556 -91 
Q 1019 -91 701 211 
Q 384 513 384 1019 
Q 384 1609 779 1909 
Q 1175 2209 1959 2209 
L 2766 2209 
L 2766 2266 
Q 2766 2663 2505 2880 
Q 2244 3097 1772 3097 
Q 1472 3097 1187 3025 
Q 903 2953 641 2809 
L 641 3341 
Q 956 3463 1253 3523 
Q 1550 3584 1831 3584 
Q 2591 3584 2966 3190 
Q 3341 2797 3341 1997 
z
" transform="scale(0.015625)"/>
       <path id="DejaVuSans-6c" d="M 603 4863 
L 1178 4863 
L 1178 0 
L 603 0 
L 603 4863 
z
" transform="scale(0.015625)"/>
      </defs>
      <use xlink:href="#DejaVuSans-56"/>
      <use xlink:href="#DejaVuSans-61" transform="translate(60.658203 0)"/>
      <use xlink:href="#DejaVuSans-6c" transform="translate(121.9375 0)"/>
      <use xlink:href="#DejaVuSans-6f" transform="translate(149.720703 0)"/>
      <use xlink:href="#DejaVuSans-72" transform="translate(210.902344 0)"/>
      <use xlink:href="#DejaVuSans-20" transform="translate(252.015625 0)"/>
      <use xlink:href="#DejaVuSans-65" transform="translate(283.802734 0)"/>
      <use xlink:href="#DejaVuSans-73" transform="translate(345.326172 0)"/>
      <use xlink:href="#DejaVuSans-70" transform="translate(397.425781 0)"/>
      <use xlink:href="#DejaVuSans-65" transform="translate(460.902344 0)"/>
      <use xlink:href="#DejaVuSans-72" transform="translate(522.425781 0)"/>
      <use xlink:href="#DejaVuSans-61" transform="translate(563.539062 0)"/>
      <use xlink:href="#DejaVuSans-64" transform="translate(624.818359 0)"/>
      <use xlink:href="#DejaVuSans-6f" transform="translate(688.294922 0)"/>
     </g>
    </g>
   </g>
   <g id="line2d_13">
    <path d="M 92.290909 369.36 
L 92.697541 66.96 
L 93.104172 288.72 
L 93.510803 157.68 
L 93.917435 296.784 
L 94.324066 147.6 
L 95.137329 218.16 
L 95.543961 221.52 
L 95.950592 284.688 
L 96.357224 215.410909 
L 96.763855 228.24 
L 97.170486 211.181538 
L 97.577118 213.84 
L 97.983749 119.376 
L 98.390381 187.92 
L 98.797012 170.131765 
L 99.203644 161.04 
L 99.610275 210.202105 
L 100.016907 133.488 
L 100.423538 265.68 
L 100.830169 275.890909 
L 101.236801 185.290435 
L 101.643432 223.2 
L 102.050064 224.208 
L 102.456695 127.44 
L 102.863327 172.24 
L 103.269958 183.6 
L 103.67659 169.150345 
L 104.083221 212.112 
L 104.489852 232.792258 
L 104.896484 233.28 
L 105.303115 226.407273 
L 105.709747 141.670588 
L 106.116378 220.752 
L 106.52301 224.88 
L 106.929641 248.4 
L 107.336273 168.821053 
L 107.742904 229.790769 
L 108.149535 203.04 
L 108.556167 204.146341 
L 108.962798 193.68 
L 109.36943 194.952558 
L 109.776061 130.189091 
L 110.182693 259.152 
L 110.995956 176.338723 
L 111.402587 187.92 
L 111.809218 154.594286 
L 112.21585 192.7584 
L 112.622481 170.131765 
L 113.029113 211.181538 
L 113.435744 191.343396 
L 113.842376 261.84 
L 114.249007 191.218909 
L 115.06227 216.568421 
L 115.468901 206.689655 
L 115.875533 211.496949 
L 116.282164 157.68 
L 116.688796 145.286557 
L 117.095427 166.459355 
L 117.502059 210 
L 117.90869 193.59 
L 118.315322 164.658462 
L 118.721953 160.429091 
L 119.128584 199.654925 
L 119.535216 179.025882 
L 119.941847 204.573913 
L 120.348479 168.912 
L 120.75511 192.179155 
L 121.161742 192.96 
L 121.568373 170.521644 
L 121.975005 200.996757 
L 122.381636 158.0832 
L 123.194899 176.138182 
L 123.60153 161.556923 
L 124.008162 213.183797 
L 124.414793 215.136 
L 124.821425 172.24 
L 125.634688 188.648675 
L 126.041319 167.76 
L 126.44795 170.131765 
L 126.854582 168.228837 
L 127.261213 170.54069 
L 127.667845 168.676364 
L 128.074476 176.36764 
L 128.481108 177.168 
L 128.887739 169.975385 
L 129.294371 191.864348 
L 129.701002 158.655484 
L 130.107633 234.245106 
L 130.514265 194.922947 
L 130.920896 206.82 
L 131.327528 167.34433 
L 132.140791 150.654545 
L 132.547422 185.5008 
L 132.954054 153.787723 
L 133.360685 155.901176 
L 133.767316 147.404272 
L 134.173948 162.332308 
L 134.580579 152.784 
L 134.987211 162.815094 
L 135.393842 196.398505 
L 135.800474 211.44 
L 136.207105 177.377615 
L 136.613737 176.923636 
L 137.020368 187.375135 
L 137.426999 157.68 
L 137.833631 200.230088 
L 138.240262 188.981053 
L 138.646894 192.653217 
L 139.053525 207.732414 
L 139.460157 190.504615 
L 139.866788 197.145763 
L 140.27342 153.868235 
L 140.680051 192.96 
L 141.086682 167.426777 
L 141.493314 203.783607 
L 141.899945 190.378537 
L 142.306577 183.042581 
L 142.713208 200.98368 
L 143.11984 210.96 
L 143.526471 211.254803 
L 143.933103 151.065 
L 144.339734 166.822326 
L 144.746365 173.963077 
L 145.152997 190.228397 
L 145.559628 183.338182 
L 145.96626 207.473684 
L 146.372891 171.671642 
L 146.779523 224.208 
L 147.186154 183.472941 
L 147.592786 168.054307 
L 147.999417 208.956522 
L 148.406048 215.331799 
L 148.81268 193.968 
L 149.219311 183.201702 
L 149.625943 208.363944 
L 150.032574 220.486154 
L 150.845837 201.684414 
L 151.6591 170.228571 
L 152.065731 191.189189 
L 152.472363 181.019597 
L 152.878994 220.176 
L 153.285626 185.917351 
L 153.692257 190.307368 
L 154.50552 171.425455 
L 154.912152 195.333677 
L 155.318783 175.513846 
L 155.725414 190.616561 
L 156.132046 174.139747 
L 156.538677 170.803019 
L 156.945309 187.92 
L 157.35194 197.311304 
L 157.758572 158.053333 
L 158.165203 201.648589 
L 158.571835 197.508293 
L 158.978466 150.898909 
L 159.385097 182.090602 
L 159.791729 183.936287 
L 160.19836 196.56 
L 160.604992 171.100118 
L 161.011623 187.208471 
L 161.418255 194.64 
L 161.824886 168.932093 
L 162.231518 194.562312 
L 162.638149 203.213793 
L 163.04478 204.1632 
L 163.451412 187.232727 
L 163.858043 190.995254 
L 164.264675 204.229213 
L 164.671306 165.957989 
L 165.077938 204.72 
L 165.484569 179.566409 
L 165.891201 175.956923 
L 166.297832 227.248525 
L 166.704463 181.346087 
L 167.111095 169.285622 
L 167.517726 196.374194 
L 167.924358 187.596578 
L 168.330989 222.020426 
L 168.737621 199.76 
L 169.144252 194.286316 
L 169.550884 176.203979 
L 169.957515 150.75 
L 170.364146 198.887876 
L 171.177409 189.470769 
L 171.584041 205.817143 
L 171.990672 208.48934 
L 172.397304 157.985455 
L 172.803935 200.988543 
L 173.210567 201.2256 
L 173.617198 205.071045 
L 174.430461 182.25931 
L 174.837092 216.974118 
L 175.243724 207.096585 
L 176.056987 195.808696 
L 176.463618 173.963077 
L 176.87025 198.04823 
L 177.276881 182.16 
L 177.683512 182.473934 
L 178.090144 185.06717 
L 178.496775 209.783662 
L 178.903407 206.007477 
L 179.310038 172.448372 
L 179.71667 182.32 
L 180.123301 172.590968 
L 180.529933 185.145688 
L 180.936564 190.957808 
L 181.343195 183.521455 
L 181.749827 191.477647 
L 182.156458 185.740541 
L 182.56309 186.021525 
L 182.969721 190.08 
L 183.376353 208.6176 
L 183.782984 162.764602 
L 184.189616 171.134802 
L 184.596247 191.633684 
L 185.002878 182.373799 
L 185.40951 203.697391 
L 185.816141 188.181818 
L 186.222773 184.270345 
L 186.629404 216.213219 
L 187.036036 191.021538 
L 187.442667 198.47183 
L 187.849299 201.758644 
L 188.25593 203.486582 
L 188.662561 184.870588 
L 189.069193 202.3441 
L 189.475824 200.016 
L 189.882456 181.144232 
L 190.289087 191.918678 
L 191.10235 190.398689 
L 191.508982 199.028571 
L 191.915613 190.378537 
L 192.322244 171.514494 
L 192.728876 184.505806 
L 193.135507 208.565783 
L 193.542139 174.37248 
L 193.94877 173.703586 
L 194.355402 204.72 
L 194.762033 176.206482 
L 195.168665 180.300472 
L 195.575296 182.464941 
L 195.981927 176.1075 
L 196.388559 185.802023 
L 196.79519 184.63814 
L 197.201822 217.576216 
L 197.608453 193.037538 
L 198.015085 188.615172 
L 198.421716 199.000305 
L 198.828348 202.867529 
L 199.234979 191.127273 
L 199.64161 190.886943 
L 200.048242 200.197895 
L 200.454873 194.035955 
L 200.861505 183.406567 
L 201.268136 201.634796 
L 201.674768 195.088 
L 202.081399 182.340664 
L 202.488031 190.143529 
L 202.894662 163.329231 
L 203.301293 204.254015 
L 203.707925 181.102255 
L 204.114556 180.469565 
L 204.521188 165.867726 
L 204.927819 194.881727 
L 205.334451 179.465806 
L 205.741082 196.992 
L 206.147714 184.261068 
L 206.554345 191.780426 
L 206.960976 179.15788 
L 207.367608 203.252958 
L 207.774239 206.806737 
L 208.180871 201.876923 
L 208.587502 186.444878 
L 208.994134 185.82 
L 209.400765 193.988927 
L 209.807397 185.000276 
L 210.214028 197.688247 
L 210.62066 171.350137 
L 211.027291 194.731741 
L 211.433922 190.8 
L 211.840554 196.325695 
L 212.247185 190.371892 
L 212.653817 186.087273 
L 213.060448 168.43651 
L 213.873711 198 
L 214.280343 187.71907 
L 214.686974 171.097748 
L 215.093605 190.914059 
L 215.500237 184.736842 
L 215.906868 189.308066 
L 216.3135 208.475294 
L 216.720131 183.388925 
L 217.126763 200.487273 
L 217.533394 197.51068 
L 217.940026 172.312258 
L 218.346657 186.947653 
L 218.753288 177.84 
L 219.15992 188.113227 
L 219.566551 187.149554 
L 219.973183 188.112 
L 220.379814 188.68557 
L 220.786446 176.281893 
L 221.193077 203.135094 
L 221.599709 186.592853 
L 222.00634 185.652 
L 222.412971 195.268037 
L 222.819603 200.692174 
L 223.226234 187.732755 
L 224.039497 196.666338 
L 224.446129 197.93816 
L 224.85276 188.844771 
L 225.259392 202.67122 
L 225.666023 183.324255 
L 226.072654 200.382545 
L 226.479286 197.604109 
L 226.885917 184.640964 
L 227.292549 191.734054 
L 227.69918 175.244551 
L 228.105812 189.183761 
L 228.512443 175.32 
L 228.919075 167.999288 
L 229.325706 195.077396 
L 229.732337 190.239292 
L 230.138969 200.371765 
L 230.5456 186.678475 
L 230.952232 181.907368 
L 231.358863 208.902857 
L 231.765495 181.590698 
L 232.172126 178.979478 
L 232.578758 177.432139 
L 232.985389 166.481844 
L 233.39202 180.273103 
L 233.798652 183.241032 
L 234.205283 190.3392 
L 234.611915 209.113846 
L 235.018546 178.641818 
L 235.425178 193.573938 
L 235.831809 197.829153 
L 236.238441 185.364507 
L 236.645072 203.549663 
L 237.051703 182.329412 
L 237.458335 173.729162 
L 237.864966 209.989304 
L 238.271598 175.824 
L 238.678229 173.009418 
L 239.084861 171.546961 
L 239.491492 188.086612 
L 239.898124 171.636923 
L 240.304755 203.329973 
L 240.711386 177.01377 
L 241.118018 196.324578 
L 241.524649 185.61913 
L 241.931281 196.279024 
L 242.337912 183.343135 
L 242.744544 187.430943 
L 243.151175 187.269677 
L 243.557807 180.947775 
L 243.964438 201.180321 
L 244.371069 197.11296 
L 244.777701 178.268936 
L 245.184332 173.000531 
L 245.590964 183.44 
L 245.997595 189.994512 
L 246.404227 193.013053 
L 246.810858 196.968189 
L 247.21749 197.102827 
L 248.030752 169.965 
L 248.437384 203.157818 
L 248.844015 204.21513 
L 249.250647 195.265116 
L 249.657278 197.58433 
L 250.06391 209.842057 
L 250.470541 180.786462 
L 250.877173 181.578107 
L 251.283804 190.08 
L 251.690435 192.998473 
L 252.097067 196.823147 
L 252.503698 163.574886 
L 252.91033 186.087273 
L 253.316961 180.759899 
L 253.723593 212.537487 
L 254.130224 175.945263 
L 254.536856 181.5696 
L 254.943487 199.533367 
L 255.350118 180.698507 
L 255.75675 200.676328 
L 256.163381 187.021782 
L 256.570013 180.602667 
L 256.976644 195.964138 
L 257.789907 183.472941 
L 258.196539 188.363619 
L 258.60317 172.578732 
L 259.009801 173.057518 
L 259.416433 215.811262 
L 259.823064 188.066441 
L 260.229696 180.907826 
L 260.636327 189.523084 
L 261.042959 173.672308 
L 261.44959 199.957986 
L 261.856222 199.49512 
L 262.262853 177.671599 
L 262.669484 193.104 
L 263.076116 184.328551 
L 263.482747 182.187299 
L 263.889379 194.925957 
L 264.29601 184.781887 
L 264.702642 164.439529 
L 265.109273 200.697465 
L 265.515905 201.659016 
L 265.922536 187.92 
L 266.329167 184.395524 
L 266.735799 185.388279 
L 267.14243 200.970209 
L 267.549062 183.72 
L 267.955693 172.974596 
L 268.362325 179.837419 
L 268.768956 179.995034 
L 269.175588 171.274128 
L 269.582219 187.781602 
L 269.98885 178.806575 
L 270.395482 186.404556 
L 270.802113 204.414545 
L 271.208745 192.72 
L 271.615376 187.37267 
L 272.022008 175.496343 
L 272.428639 194.730811 
L 272.835271 172.290337 
L 273.241902 211.786547 
L 273.648533 181.019597 
L 274.055165 179.82 
L 274.461796 179.164543 
L 274.868428 182.8128 
L 275.275059 195.563814 
L 275.681691 186.849558 
L 276.088322 180.843974 
L 276.494954 196.445815 
L 276.901585 181.140923 
L 277.308216 176.513684 
L 277.714848 173.759475 
L 278.121479 188.712314 
L 278.528111 188.578824 
L 278.934742 188.182957 
L 279.341374 185.952104 
L 279.748005 190.8 
L 280.154637 192.23067 
L 280.561268 181.924138 
L 281.781162 203.849422 
L 282.594425 187.791045 
L 283.001057 189.206809 
L 283.407688 183.682548 
L 283.81432 181.51322 
L 284.220951 194.952558 
L 284.627582 198.893165 
L 285.034214 174.805389 
L 285.440845 184.870588 
L 285.847477 183.735849 
L 286.254108 190.450544 
L 286.66074 180.723006 
L 287.067371 181.368 
L 287.474003 178.23817 
L 287.880634 200.969627 
L 288.287265 179.029565 
L 288.693897 182.421818 
L 289.100528 192.78334 
L 289.50716 191.404444 
L 289.913791 170.160986 
L 290.320423 198.578361 
L 291.133686 189.648 
L 291.540317 173.754623 
L 291.946948 190.132683 
L 292.35358 192.949777 
L 292.760211 175.677085 
L 293.573474 197.430968 
L 293.980106 183.417465 
L 294.386737 193.749398 
L 294.793369 180.041844 
L 295.2 192.7584 
L 295.606631 183.936287 
L 296.013263 188.642869 
L 296.419894 173.371133 
L 296.826526 194.16 
L 297.233157 184.207366 
L 297.639789 190.310514 
L 298.04642 169.191479 
L 298.453052 181.967244 
L 298.859683 176.869627 
L 299.266314 190.054588 
L 299.672946 187.801644 
L 300.079577 175.87125 
L 300.486209 206.665263 
L 300.89284 178.27144 
L 301.299472 175.589126 
L 301.706103 208.314419 
L 302.112735 176.104758 
L 302.519366 194.458378 
L 302.925997 182.443006 
L 303.332629 185.128615 
L 303.73926 195.929827 
L 304.145892 189.773793 
L 304.552523 187.110516 
L 304.959155 178.686412 
L 305.365786 173.7504 
L 305.772418 193.209125 
L 306.179049 193.772903 
L 306.58568 185.629091 
L 306.992312 183.232514 
L 307.398943 206.634566 
L 307.805575 175.277288 
L 308.212206 186.555789 
L 308.618838 175.324728 
L 309.025469 191.997303 
L 309.432101 199.563813 
L 309.838732 190.62806 
L 310.245363 195.465922 
L 310.651995 180.950186 
L 311.058626 173.220779 
L 311.465258 185.68 
L 311.871889 179.088355 
L 312.278521 194.615203 
L 312.685152 182.239558 
L 313.091784 202.595294 
L 313.498415 185.367633 
L 313.905046 175.956923 
L 314.311678 178.300695 
L 314.718309 186.59562 
L 315.124941 190.45377 
L 315.938204 202.957677 
L 316.344835 171.046957 
L 316.751467 193.497722 
L 317.158098 183.116534 
L 317.564729 196.310919 
L 318.377992 200.841221 
L 318.784624 187.92 
L 319.191255 197.116422 
L 319.597887 197.856 
L 320.004518 183.284278 
L 320.41115 185.337224 
L 320.817781 200.05897 
L 321.224412 197.785532 
L 321.631044 189.739752 
L 322.037675 191.339364 
L 322.444307 203.6 
L 322.850938 196.651268 
L 323.25757 184.624956 
L 323.664201 185.373474 
L 324.070833 182.518109 
L 324.477464 196.801678 
L 324.884095 174.515183 
L 325.290727 186.023415 
L 325.697358 203.381843 
L 326.10399 199.47 
L 326.510621 186.976638 
L 326.917253 185.199446 
L 327.323884 193.247254 
L 327.730516 189.796966 
L 328.137147 189.06506 
L 328.543778 186.67299 
L 328.95041 174.330154 
L 329.357041 191.233973 
L 329.763673 181.406769 
L 330.170304 199.479317 
L 330.983567 179.28 
L 331.390199 176.932971 
L 331.79683 197.35078 
L 332.203461 201.735228 
L 332.610093 202.427027 
L 333.016724 189.857808 
L 333.423356 185.883636 
L 333.829987 186.395294 
L 334.236619 197.458792 
L 334.64325 189.844824 
L 335.049882 175.783545 
L 335.456513 191.857763 
L 335.863144 198 
L 336.269776 173.932113 
L 336.676407 191.737674 
L 337.083039 183.005373 
L 337.48967 194.328477 
L 337.896302 190.419174 
L 338.302933 177.939802 
L 338.709565 184.432685 
L 339.116196 176.182105 
L 339.522827 188.01931 
L 339.929459 178.005246 
L 340.33609 191.780426 
L 340.742722 191.675294 
L 341.149353 174.403263 
L 341.555985 197.376156 
L 341.962616 191.952 
L 342.369248 183.796364 
L 342.775879 185.273387 
L 343.18251 193.20466 
L 343.589142 194.4663 
L 343.995773 166.654452 
L 344.402405 194.834783 
L 344.809036 188.308939 
L 345.215668 200.831461 
L 346.028931 173.501568 
L 346.435562 181.350288 
L 346.842193 194.189856 
L 347.248825 192.157452 
L 347.655456 195.708362 
L 348.062088 187.152 
L 348.468719 196.833851 
L 348.875351 189.833924 
L 349.281982 191.837346 
L 349.688614 177.045047 
L 350.095245 180.776693 
L 350.908508 190.293626 
L 351.315139 188.67837 
L 351.721771 198.615211 
L 352.128402 199.071 
L 352.535034 193.675507 
L 352.941665 190.557757 
L 353.348297 192.905132 
L 353.754928 193.366957 
L 354.161559 187.638698 
L 354.568191 192.788359 
L 354.974822 184.83524 
L 355.381454 191.466667 
L 355.788085 184.658367 
L 356.194717 186.245169 
L 356.601348 187.083871 
L 357.00798 187.548957 
L 357.414611 187.827381 
L 357.821242 189.214679 
L 358.227874 182.656855 
L 358.634505 184.969756 
L 359.041137 178.070137 
L 359.447768 180.382979 
L 359.8544 196.271563 
L 360.261031 186.087273 
L 360.667663 191.488411 
L 361.480925 213.37086 
L 361.887557 189.559518 
L 362.294188 187.647158 
L 362.70082 197.182703 
L 363.107451 188.010675 
L 363.514083 192.99018 
L 363.920714 191.44574 
L 364.327346 194.780418 
L 364.733977 179.717794 
L 365.140608 187.02 
L 365.54724 191.065319 
L 365.953871 176.434184 
L 366.360503 188.9056 
L 366.767134 194.898462 
L 367.173766 203.911019 
L 367.580397 190.95292 
L 367.987029 184.802474 
L 368.39366 190.410353 
L 368.800291 178.417269 
L 369.206923 193.772903 
L 369.613554 173.309165 
L 370.020186 188.981053 
L 370.426817 185.182949 
L 370.833449 178.398367 
L 371.646712 200.578605 
L 372.053343 179.580958 
L 372.459974 197.386435 
L 372.866606 180.130246 
L 373.273237 190.19237 
L 373.679869 186.785455 
L 374.0865 200.992046 
L 374.493132 194.098532 
L 374.899763 180.968276 
L 375.306395 185.056528 
L 375.713026 191.559198 
L 376.119657 195.966695 
L 376.526289 178.9344 
L 376.93292 188.696491 
L 377.339552 190.504615 
L 377.746183 198.845974 
L 378.152815 188.779091 
L 378.559446 186.118468 
L 378.966078 186.035354 
L 379.372709 188.518812 
L 379.77934 192.191186 
L 380.185972 179.304372 
L 380.592603 196.779042 
L 380.999235 183.922025 
L 381.405866 180.444944 
L 381.812498 195.130098 
L 382.219129 183.515294 
L 382.625761 188.512112 
L 383.032392 190.454078 
L 383.439024 176.363849 
L 383.845655 189.773148 
L 384.252286 198.939305 
L 384.658918 177.168 
L 385.065549 190.352621 
L 385.472181 177.197784 
L 385.878812 190.178589 
L 386.285444 182.239558 
L 387.098707 194.584463 
L 387.505338 182.34619 
L 387.911969 180.775385 
L 388.318601 184.518519 
L 388.725232 208.300932 
L 389.131864 188.499152 
L 389.538495 198 
L 389.945127 187.177408 
L 390.351758 185.942452 
L 390.75839 194.914286 
L 391.165021 191.7 
L 391.571652 194.074681 
L 391.978284 194.476098 
L 392.384915 182.436698 
L 392.791547 192.169946 
L 393.198178 178.370526 
L 393.60481 176.182642 
L 394.011441 191.582988 
L 394.418073 175.076129 
L 394.824704 196.444027 
L 395.637967 176.018313 
L 396.044598 189.051979 
L 396.45123 184.770841 
L 396.857861 200.016 
L 397.264493 185.745619 
L 397.671124 179.716596 
L 398.077756 177.398247 
L 398.484387 187.278302 
L 398.891018 203.861086 
L 399.29765 190.64 
L 399.704281 195.350172 
L 400.110913 183.611398 
L 400.517544 179.712569 
L 400.924176 178.848 
L 401.330807 200.07958 
L 401.737439 186.808819 
L 402.14407 193.706422 
L 402.550701 196.15288 
L 402.957333 192.426353 
L 403.363964 185.867154 
L 403.770596 189.733611 
L 404.177227 186.975 
L 404.583859 195.234226 
L 404.99049 182.893091 
L 405.397122 182.66428 
L 405.803753 191.210363 
L 406.210384 189.093609 
L 406.617016 200.734884 
L 407.023647 199.235613 
L 407.430279 196.649072 
L 407.83691 180.681081 
L 409.056805 192.107077 
L 409.870067 206.017596 
L 410.276699 203.445517 
L 410.68333 182.52 
L 411.496593 193.460153 
L 411.903225 179.850877 
L 412.309856 174.104772 
L 412.716488 201.027833 
L 413.123119 179.804962 
L 413.52975 179.43292 
L 413.936382 186.24 
L 414.343013 196.385675 
L 414.749645 187.92 
L 415.156276 192.560604 
L 415.562908 180.929849 
L 415.969539 185.415809 
L 416.376171 183.221053 
L 416.782802 194.80821 
L 417.189433 180.36 
L 417.596065 187.542472 
L 418.002696 189.880698 
L 418.409328 184.22944 
L 418.815959 185.061493 
L 419.222591 185.140174 
L 419.629222 182.667395 
L 420.035854 185.596729 
L 420.442485 182.530693 
L 420.849116 196.068727 
L 421.255748 191.205333 
L 421.662379 189.038619 
L 422.069011 196.857931 
L 422.475642 188.440738 
L 422.882274 191.337789 
L 423.695537 192.811765 
L 424.102168 186.069327 
L 424.508799 187.92 
L 424.915431 195.083077 
L 425.322062 194.410537 
L 425.728694 171.345091 
L 426.135325 188.80292 
L 426.541957 192.402722 
L 426.948588 178.525049 
L 427.35522 186.966982 
L 427.761851 181.037288 
L 428.575114 195.662609 
L 428.981745 196.7476 
L 429.388377 195.352482 
L 429.795008 191.34065 
L 431.014903 174.431655 
L 431.828165 188.354067 
L 432.234797 182.645161 
L 432.641428 188.641718 
L 433.04806 204.28348 
L 433.454691 190.08 
L 433.861323 193.025922 
L 434.267954 181.886366 
L 434.674586 198.466335 
L 435.487848 189.279905 
L 435.89448 189.635745 
L 436.301111 186.563306 
L 436.707743 192.341887 
L 437.114374 182.862191 
L 437.521006 190.908424 
L 437.927637 191.970952 
L 438.334269 176.704225 
L 438.7409 191.819648 
L 439.147531 188.203279 
L 439.554163 197.469474 
L 439.960794 183.822056 
L 440.367426 178.957386 
L 440.774057 179.179301 
L 441.180689 178.274179 
L 441.58732 186.232186 
L 441.993952 190.378537 
L 442.400583 174.027842 
L 442.807214 188.270406 
L 443.213846 192.4 
L 443.620477 179.180116 
L 444.027109 190.01515 
L 444.43374 196.500208 
L 444.840372 196.141935 
L 445.247003 193.139793 
L 445.653635 183.748966 
L 446.466897 193.607339 
L 446.873529 194.778557 
L 447.28016 190.134371 
L 447.686792 190.61568 
L 448.093423 187.92 
L 448.500055 182.471973 
L 448.906686 195.634989 
L 449.313318 192.529966 
L 449.719949 184.621091 
L 450.12658 188.400545 
L 450.533212 183.942857 
L 450.939843 185.522718 
L 451.346475 187.783167 
L 451.753106 200.289356 
L 452.159738 186.418239 
L 452.566369 196.852221 
L 452.973001 186.285405 
L 453.379632 184.450394 
L 453.786263 189.550921 
L 454.192895 190.431515 
L 454.599526 193.073004 
L 455.006158 184.330482 
L 455.412789 181.290201 
L 455.819421 195.015419 
L 456.226052 192.375 
L 456.632684 196.078395 
L 457.039315 190.075189 
L 457.445946 187.852725 
L 457.852578 199.344 
L 458.259209 185.839112 
L 458.665841 193.015876 
L 459.072472 178.476279 
L 459.479104 180.560708 
L 459.885735 196.808221 
L 460.292367 189.655629 
L 460.698998 187.319868 
L 461.105629 174.598414 
L 461.512261 198.232871 
L 461.918892 190.578462 
L 462.325524 193.430252 
L 462.732155 191.501053 
L 463.138787 190.900942 
L 463.545418 186.067221 
L 463.95205 183.755803 
L 464.358681 194.52262 
L 464.765312 178.620458 
L 465.171944 187.656471 
L 465.578575 182.062851 
L 465.985207 186.868174 
L 466.391838 189.036352 
L 466.79847 188.969544 
L 467.205101 190.606544 
L 467.611733 194.727273 
L 468.018364 192.823784 
L 468.424995 192.883801 
L 468.831627 181.852427 
L 469.238258 191.308966 
L 470.051521 174.133161 
L 470.458153 180.969023 
L 470.864784 185.324292 
L 471.271416 201.0791 
L 471.678047 195.949465 
L 472.49131 184.301538 
L 472.897941 194.181003 
L 473.304573 185.598806 
L 473.711204 184.89278 
L 474.117836 182.901447 
L 474.524467 192.740404 
L 474.931099 198.192611 
L 475.33773 185.290435 
L 475.744361 194.454915 
L 476.150993 189.264 
L 476.557624 194.441099 
L 476.964256 189.388891 
L 477.370887 204.124557 
L 477.777519 179.698799 
L 478.18415 190.848505 
L 478.590782 195.360757 
L 478.997413 180.169412 
L 479.404044 189.887345 
L 479.810676 185.510943 
L 480.217307 189.503246 
L 480.623939 197.283013 
L 481.03057 197.462821 
L 481.437202 178.324008 
L 482.250465 189.432 
L 482.657096 185.08795 
L 483.063727 193.200998 
L 483.470359 179.064673 
L 484.283622 192.745865 
L 484.690253 182.535652 
L 485.096885 184.480083 
L 485.503516 190.044298 
L 485.910148 192.476285 
L 486.316779 191.53633 
L 486.72341 181.130793 
L 487.130042 190.906667 
L 487.536673 188.355108 
L 487.943305 190.031211 
L 488.349936 181.158646 
L 488.756568 189.283279 
L 489.163199 183.896254 
L 489.569831 176.665031 
L 489.976462 189.464433 
L 490.789725 198.832294 
L 491.196356 184.594216 
L 491.602988 189.827304 
L 492.009619 198.245854 
L 492.822882 186.325193 
L 493.229514 183.814468 
L 493.636145 194.286316 
L 494.042776 187.491931 
L 494.449408 187.675636 
L 494.856039 191.642785 
L 495.262671 178.896774 
L 496.075934 200.940845 
L 496.482565 198.192482 
L 496.889197 180.99759 
L 497.295828 172.32987 
L 497.702459 183.435511 
L 498.109091 204.326486 
L 498.109091 204.326486 
" clip-path="url(#p22b675ba70)" style="fill: none; stroke: #808080; stroke-width: 2; stroke-linecap: square"/>
   </g>
   <g id="line2d_14">
    <path d="M 72 187.92 
L 518.4 187.92 
" clip-path="url(#p22b675ba70)" style="fill: none; stroke-dasharray: 5.55,2.4; stroke-dashoffset: 0; stroke: #000000; stroke-width: 1.5"/>
   </g>
   <g id="patch_3">
    <path d="M 72 384.48 
L 72 51.84 
" style="fill: none; stroke: #000000; stroke-width: 0.8; stroke-linejoin: miter; stroke-linecap: square"/>
   </g>
   <g id="patch_4">
    <path d="M 518.4 384.48 
L 518.4 51.84 
" style="fill: none; stroke: #000000; stroke-width: 0.8; stroke-linejoin: miter; stroke-linecap: square"/>
   </g>
   <g id="patch_5">
    <path d="M 72 384.48 
L 518.4 384.48 
" style="fill: none; stroke: #000000; stroke-width: 0.8; stroke-linejoin: miter; stroke-linecap: square"/>
   </g>
   <g id="patch_6">
    <path d="M 72 51.84 
L 518.4 51.84 
" style="fill: none; stroke: #000000; stroke-width: 0.8; stroke-linejoin: miter; stroke-linecap: square"/>
   </g>
   <g id="legend_1">
    <g id="patch_7">
     <path d="M 383.0175 96.6675 
L 510 96.6675 
Q 512.4 96.6675 512.4 94.2675 
L 512.4 60.24 
Q 512.4 57.84 510 57.84 
L 383.0175 57.84 
Q 380.6175 57.84 380.6175 60.24 
L 380.6175 94.2675 
Q 380.6175 96.6675 383.0175 96.6675 
z
" style="fill: #ffffff; opacity: 0.8; stroke: #cccccc; stroke-linejoin: miter"/>
    </g>
    <g id="line2d_15">
     <path d="M 385.4175 67.558125 
L 397.4175 67.558125 
L 409.4175 67.558125 
" style="fill: none; stroke: #808080; stroke-width: 2; stroke-linecap: square"/>
    </g>
    <g id="text_15">
     <!-- Valor simulado -->
     <g transform="translate(419.0175 71.758125) scale(0.12 -0.12)">
      <defs>
       <path id="DejaVuSans-75" d="M 544 1381 
L 544 3500 
L 1119 3500 
L 1119 1403 
Q 1119 906 1312 657 
Q 1506 409 1894 409 
Q 2359 409 2629 706 
Q 2900 1003 2900 1516 
L 2900 3500 
L 3475 3500 
L 3475 0 
L 2900 0 
L 2900 538 
Q 2691 219 2414 64 
Q 2138 -91 1772 -91 
Q 1169 -91 856 284 
Q 544 659 544 1381 
z
M 1991 3584 
L 1991 3584 
z
" transform="scale(0.015625)"/>
      </defs>
      <use xlink:href="#DejaVuSans-56"/>
      <use xlink:href="#DejaVuSans-61" transform="translate(60.658203 0)"/>
      <use xlink:href="#DejaVuSans-6c" transform="translate(121.9375 0)"/>
      <use xlink:href="#DejaVuSans-6f" transform="translate(149.720703 0)"/>
      <use xlink:href="#DejaVuSans-72" transform="translate(210.902344 0)"/>
      <use xlink:href="#DejaVuSans-20" transform="translate(252.015625 0)"/>
      <use xlink:href="#DejaVuSans-73" transform="translate(283.802734 0)"/>
      <use xlink:href="#DejaVuSans-69" transform="translate(335.902344 0)"/>
      <use xlink:href="#DejaVuSans-6d" transform="translate(363.685547 0)"/>
      <use xlink:href="#DejaVuSans-75" transform="translate(461.097656 0)"/>
      <use xlink:href="#DejaVuSans-6c" transform="translate(524.476562 0)"/>
      <use xlink:href="#DejaVuSans-61" transform="translate(552.259766 0)"/>
      <use xlink:href="#DejaVuSans-64" transform="translate(613.539062 0)"/>
      <use xlink:href="#DejaVuSans-6f" transform="translate(677.015625 0)"/>
     </g>
    </g>
    <g id="line2d_16">
     <path d="M 385.4175 85.171875 
L 397.4175 85.171875 
L 409.4175 85.171875 
" style="fill: none; stroke-dasharray: 5.55,2.4; stroke-dashoffset: 0; stroke: #000000; stroke-width: 1.5"/>
    </g>
    <g id="text_16">
     <!-- Valor teórico -->
     <g transform="translate(419.0175 89.371875) scale(0.12 -0.12)">
      <defs>
       <path id="DejaVuSans-f3" d="M 1959 3097 
Q 1497 3097 1228 2736 
Q 959 2375 959 1747 
Q 959 1119 1226 758 
Q 1494 397 1959 397 
Q 2419 397 2687 759 
Q 2956 1122 2956 1747 
Q 2956 2369 2687 2733 
Q 2419 3097 1959 3097 
z
M 1959 3584 
Q 2709 3584 3137 3096 
Q 3566 2609 3566 1747 
Q 3566 888 3137 398 
Q 2709 -91 1959 -91 
Q 1206 -91 779 398 
Q 353 888 353 1747 
Q 353 2609 779 3096 
Q 1206 3584 1959 3584 
z
M 2394 5119 
L 3016 5119 
L 1998 3944 
L 1519 3944 
L 2394 5119 
z
" transform="scale(0.015625)"/>
       <path id="DejaVuSans-63" d="M 3122 3366 
L 3122 2828 
Q 2878 2963 2633 3030 
Q 2388 3097 2138 3097 
Q 1578 3097 1268 2742 
Q 959 2388 959 1747 
Q 959 1106 1268 751 
Q 1578 397 2138 397 
Q 2388 397 2633 464 
Q 2878 531 3122 666 
L 3122 134 
Q 2881 22 2623 -34 
Q 2366 -91 2075 -91 
Q 1284 -91 818 406 
Q 353 903 353 1747 
Q 353 2603 823 3093 
Q 1294 3584 2113 3584 
Q 2378 3584 2631 3529 
Q 2884 3475 3122 3366 
z
" transform="scale(0.015625)"/>
      </defs>
      <use xlink:href="#DejaVuSans-56"/>
      <use xlink:href="#DejaVuSans-61" transform="translate(60.658203 0)"/>
      <use xlink:href="#DejaVuSans-6c" transform="translate(121.9375 0)"/>
      <use xlink:href="#DejaVuSans-6f" transform="translate(149.720703 0)"/>
      <use xlink:href="#DejaVuSans-72" transform="translate(210.902344 0)"/>
      <use xlink:href="#DejaVuSans-20" transform="translate(252.015625 0)"/>
      <use xlink:href="#DejaVuSans-74" transform="translate(283.802734 0)"/>
      <use xlink:href="#DejaVuSans-65" transform="translate(323.011719 0)"/>
      <use xlink:href="#DejaVuSans-f3" transform="translate(384.535156 0)"/>
      <use xlink:href="#DejaVuSans-72" transform="translate(445.716797 0)"/>
      <use xlink:href="#DejaVuSans-69" transform="translate(486.830078 0)"/>
      <use xlink:href="#DejaVuSans-63" transform="translate(514.613281 0)"/>
      <use xlink:href="#DejaVuSans-6f" transform="translate(569.59375 0)"/>
     </g>
    </g>
   </g>
  </g>
 </g>
 <defs>
  <clipPath id="p22b675ba70">
   <rect x="72" y="51.84" width="446.4" height="332.64"/>
  </clipPath>
 </defs>
</svg>
